HIERARCHY
ROOT Hips
{
	OFFSET -3.958830 18.904000 13.208200
	CHANNELS 6 Xposition Yposition Zposition Zrotation Yrotation Xrotation 
	JOINT LHipJoint
	{
		OFFSET 0.000000 0.000000 0.000000
		CHANNELS 3 Zrotation Yrotation Xrotation
		JOINT LeftUpLeg
		{
			OFFSET 1.800000 -1.400000 0.085000
			CHANNELS 3 Zrotation Yrotation Xrotation
			JOINT LeftLeg
			{
				OFFSET 2.215000 -6.000000 0.000000
				CHANNELS 3 Zrotation Yrotation Xrotation
				JOINT LeftFoot
				{
					OFFSET 2.500000 -6.900000 0.000000
					CHANNELS 3 Zrotation Yrotation Xrotation
					JOINT LeftToeBase
					{
						OFFSET 0.200000 -0.500000 1.950000
						CHANNELS 3 Zrotation Yrotation Xrotation
						End Site
						{
							OFFSET 0.000000 0.000000 0.000000
						}
					}
				}
			}
		}
	}
	JOINT RHipJoint
	{
		OFFSET 0.000000 0.000000 0.000000
		CHANNELS 3 Zrotation Yrotation Xrotation
		JOINT RightUpLeg
		{
			OFFSET -1.800000 -1.400000 0.085000
			CHANNELS 3 Zrotation Yrotation Xrotation
			JOINT RightLeg
			{
				OFFSET -2.215000 -6.000000 0.000000
				CHANNELS 3 Zrotation Yrotation Xrotation
				JOINT RightFoot
				{
					OFFSET -2.500000 -6.900000 0.000000
					CHANNELS 3 Zrotation Yrotation Xrotation
					JOINT RightToeBase
					{
						OFFSET -0.200000 -0.500000 1.950000
						CHANNELS 3 Zrotation Yrotation Xrotation
						End Site
						{
							OFFSET 0.000000 0.000000 0.000000
						}
					}
				}
			}
		}
	}
	JOINT LowerBack
	{
		OFFSET 0.000000 0.000000 0.000000
		CHANNELS 3 Zrotation Yrotation Xrotation
		JOINT Spine
		{
			OFFSET -0.087000 1.940000 -0.288900
			CHANNELS 3 Zrotation Yrotation Xrotation
			JOINT Spine1
			{
				OFFSET 0.000000 1.950000 0.060000
				CHANNELS 3 Zrotation Yrotation Xrotation
				JOINT Neck
				{
					OFFSET 0.000000 0.000000 0.000000
					CHANNELS 3 Zrotation Yrotation Xrotation
					JOINT Neck1
					{
						OFFSET 0.000000 1.600000 0.340000
						CHANNELS 3 Zrotation Yrotation Xrotation
						JOINT Head
						{
							OFFSET 0.000000 1.667000 -0.240000
							CHANNELS 3 Zrotation Yrotation Xrotation
							End Site
							{
								OFFSET 0.000000 0.000000 0.000000
							}
						}
					}
				}
				JOINT LeftShoulder
				{
					OFFSET 0.000000 0.000000 0.000000
					CHANNELS 3 Zrotation Yrotation Xrotation
					JOINT LeftArm
					{
						OFFSET 2.700000 1.550000 -0.730000
						CHANNELS 3 Zrotation Yrotation Xrotation
						JOINT LeftForeArm
						{
							OFFSET 5.450000 0.000000 0.000000
							CHANNELS 3 Zrotation Yrotation Xrotation
							JOINT LeftHand
							{
								OFFSET 3.450000 0.000000 0.000000
								CHANNELS 3 Zrotation Yrotation Xrotation
								JOINT LeftHandIndex1
								{
									OFFSET 0.750000 0.000000 0.000000
									CHANNELS 3 Zrotation Yrotation Xrotation
									End Site
									{
										OFFSET 0.000000 0.000000 0.000000
									}
								}
							}
						}
					}
				}
				JOINT RightShoulder
				{
					OFFSET 0.000000 0.000000 0.000000
					CHANNELS 3 Zrotation Yrotation Xrotation
					JOINT RightArm
					{
						OFFSET -2.700000 1.550000 -0.730000
						CHANNELS 3 Zrotation Yrotation Xrotation
						JOINT RightForeArm
						{
							OFFSET -5.450000 0.000000 0.000000
							CHANNELS 3 Zrotation Yrotation Xrotation
							JOINT RightHand
							{
								OFFSET -3.450000 0.000000 0.000000
								CHANNELS 3 Zrotation Yrotation Xrotation
								JOINT RightHandIndex1
								{
									OFFSET -0.750000 0.000000 0.000000
									CHANNELS 3 Zrotation Yrotation Xrotation
									End Site
									{
										OFFSET 0.000000 0.000000 0.000000
									}
								}
							}
						}
					}
				}
			}
		}
	}
}
MOTION
Frames: 12
Frame Time: 0.016667
-0.410850 16.821660 -2.956040 -7.681221 -20.953843 -0.622786 -15.615769 14.023987 3.005906 8.997460 1.280310 -27.106878 -3.208242 9.593218 33.993334 0.285180 5.773011 2.176446 1.022050 0.883000 1.089420 17.747359 -10.025191 3.600889 5.461349 1.987933 -6.933335 12.650387 -4.354242 5.823514 -0.920323 -2.886549 3.102324 0.176210 -0.685250 0.547870 -1.807133 -3.481145 -8.514775 4.555044 6.359638 32.320069 9.142197 7.837474 15.962318 4.915557 -1.824950 -18.772891 -3.059631 2.734927 56.730693 -14.524980 6.423750 -29.590570 -26.086538 -27.102705 11.033879 -51.139482 0.512479 -12.105425 -17.687842 -26.236043 -0.771656 -2.960895 3.222879 0.718060 -0.443700 0.910990 0.117750 18.050512 39.103793 13.527473 44.203204 40.045488 2.760991 61.429851 67.023085 31.997664 1.949602 -2.229814 0.472680 -0.206550 -0.568540 -0.153470 
-0.410760 16.819690 -2.956510 -7.748914 -21.033100 -0.666352 -15.618707 14.038568 3.002892 9.065011 1.319668 -27.103013 -3.153159 9.607522 34.088638 0.290963 5.787752 2.169335 1.024310 0.887000 1.091400 17.745043 -10.011792 3.603291 5.511450 1.977164 -6.839673 12.672727 -4.355241 5.806493 -0.923944 -2.890175 3.099375 0.176900 -0.689000 0.547830 -1.798047 -3.523699 -8.518776 4.597357 6.326995 32.462512 9.133110 7.822614 16.011058 4.943815 -1.885229 -18.805918 -3.237540 2.835092 56.759107 -14.535850 6.413240 -29.673080 -26.214537 -27.190753 11.031574 -51.036754 0.470404 -11.977947 -17.626559 -25.831228 -0.797579 -2.958945 3.222540 0.717130 -0.446710 0.913860 0.117320 18.123447 39.225161 13.604494 44.019956 40.035400 2.871504 62.245610 67.522985 32.728010 1.950293 -2.238965 0.475900 -0.208130 -0.570620 -0.152030 
-0.410480 16.817010 -2.958100 -7.856707 -21.188991 -0.783939 -15.625061 14.072352 2.994499 9.165017 1.391946 -27.069483 -3.011001 9.618175 34.277566 0.300964 5.811251 2.157977 1.029870 0.895480 1.096720 17.739289 -9.985542 3.607252 5.581487 1.950504 -6.636424 12.718041 -4.358752 5.768849 -0.932854 -2.897846 3.093223 0.178690 -0.697910 0.547530 -1.776967 -3.615679 -8.524577 4.639204 6.274395 32.782580 9.101891 7.803414 16.093684 5.001374 -1.986946 -18.885566 -3.562131 3.020393 56.881067 -14.568910 6.389900 -29.895990 -26.459040 -27.385651 11.039048 -50.792325 0.411390 -11.750487 -17.620305 -25.073357 -0.834011 -2.953115 3.220771 0.717830 -0.454000 0.921070 0.116520 18.253177 39.476030 13.760720 43.704678 40.007173 3.064358 63.833490 68.469696 34.123992 1.953827 -2.253582 0.481700 -0.210620 -0.575560 -0.150270 
-0.410710 16.814210 -2.960520 -7.958893 -21.394362 -0.959111 -15.636240 14.119859 2.985225 9.275636 1.478722 -27.031714 -2.824758 9.639096 34.561055 0.313469 5.850036 2.140262 1.037390 0.905060 1.103540 17.729241 -9.947908 3.608834 5.648003 1.906555 -6.363371 12.752625 -4.363800 5.716828 -0.944879 -2.905854 3.086695 0.180110 -0.709110 0.547720 -1.741155 -3.749972 -8.531208 4.612057 6.224573 33.207468 9.102837 7.770564 16.198912 5.067503 -2.128178 -19.022597 -4.019004 3.272481 57.146807 -14.595080 6.336040 -30.184110 -26.722379 -27.668470 11.066656 -50.519551 0.354875 -11.462797 -17.693702 -24.037760 -0.885490 -2.945720 3.217421 0.721280 -0.464210 0.931020 0.116390 18.394560 39.832523 13.980004 43.332984 39.935416 3.313150 66.051862 69.706881 36.010453 1.965625 -2.263548 0.488640 -0.212570 -0.580910 -0.148580 
-0.411470 16.811040 -2.963350 -8.068319 -21.622827 -1.150468 -15.650500 14.173085 2.976281 9.405030 1.576250 -27.001345 -2.637546 9.668662 34.870476 0.325293 5.897469 2.119975 1.045810 0.915140 1.109620 17.717017 -9.902493 3.608872 5.726185 1.854576 -6.055188 12.779159 -4.369870 5.663142 -0.957932 -2.914546 3.081139 0.182570 -0.719250 0.547550 -1.697254 -3.908299 -8.538351 4.545962 6.174014 33.667646 9.173475 7.709848 16.355314 5.121562 -2.343633 -19.199175 -4.654004 3.616648 57.445008 -14.562390 6.256820 -30.500190 -26.917729 -27.994383 11.103466 -50.303594 0.282096 -11.154203 -17.931435 -22.860506 -0.940525 -2.939501 3.210922 0.726820 -0.474700 0.941240 0.117490 18.510580 40.268915 14.242583 42.891183 39.850667 3.637226 68.860987 71.141423 38.313624 1.993997 -2.256046 0.494370 -0.212130 -0.586130 -0.146910 
-0.412360 16.807020 -2.965940 -8.233331 -21.869415 -1.324124 -15.663482 14.222752 2.967794 9.593137 1.692292 -26.997955 -2.448225 9.712505 35.222257 0.335615 5.957993 2.094938 1.054240 0.925160 1.115210 17.707286 -9.854459 3.611238 5.855277 1.801320 -5.723115 12.809798 -4.377545 5.600666 -0.972372 -2.925310 3.075163 0.185470 -0.727770 0.547460 -1.659313 -4.063689 -8.547535 4.549280 6.085004 34.141134 9.250687 7.614672 16.559101 5.176278 -2.597234 -19.375496 -5.362676 4.018706 57.703839 -14.551770 6.185430 -30.878010 -27.022247 -28.315720 11.137719 -50.140444 0.197634 -10.861548 -18.389331 -21.648145 -0.994809 -2.935535 3.202791 0.734060 -0.484720 0.951310 0.119010 18.537338 40.706775 14.508680 42.500525 39.828471 4.064342 72.099046 72.716658 40.895891 2.051580 -2.212920 0.498700 -0.209460 -0.590210 -0.145410 
-0.413590 16.802760 -2.968350 -8.421338 -22.114614 -1.472171 -15.676875 14.270604 2.960643 9.806395 1.813792 -27.012594 -2.275223 9.759248 35.556292 0.343822 6.019176 2.069880 1.062350 0.934410 1.120210 17.698079 -9.803393 3.614111 6.014523 1.749237 -5.397893 12.828156 -4.382021 5.528258 -0.986962 -2.933156 3.070842 0.188170 -0.735760 0.546410 -1.622022 -4.221037 -8.558348 4.566307 5.984130 34.607188 9.351715 7.505504 16.737827 5.226333 -2.871331 -19.552882 -6.124907 4.442990 57.987456 -14.547160 6.100480 -31.282630 -27.035232 -28.609987 11.170431 -50.072708 0.122999 -10.612573 -19.042384 -20.436331 -1.058608 -2.932906 3.192954 0.743060 -0.495150 0.961040 0.120620 18.485442 41.117149 14.760593 42.205502 39.791675 4.531815 75.799457 74.252976 43.642173 2.167315 -2.094247 0.501760 -0.204800 -0.593260 -0.144610 
-0.414400 16.798610 -2.970760 -8.630060 -22.371001 -1.600338 -15.689339 14.316139 2.954563 10.046053 1.940522 -27.028133 -2.124317 9.810625 35.867859 0.350737 6.080372 2.043923 1.069120 0.942320 1.124780 17.690200 -9.751938 3.617985 6.200098 1.695325 -5.078834 12.824434 -4.382721 5.444581 -1.000710 -2.938727 3.066641 0.190560 -0.744400 0.545420 -1.588127 -4.374552 -8.571014 4.616682 5.865000 35.087024 9.416215 7.395368 16.887064 5.287189 -3.128055 -19.725581 -6.858384 4.855801 58.261193 -14.583410 6.017800 -31.706900 -27.047175 -28.891358 11.207510 -50.013539 0.073551 -10.404501 -19.736197 -19.293429 -1.134716 -2.930307 3.183414 0.752540 -0.505560 0.970800 0.120890 18.400111 41.494204 14.998551 41.994055 39.788903 4.988638 79.865937 75.676062 46.508017 2.359349 -1.868520 0.504230 -0.200650 -0.595290 -0.144430 
-0.415270 16.794740 -2.973170 -8.821531 -22.624610 -1.714612 -15.702800 14.359562 2.949960 10.276186 2.060943 -27.047793 -1.995979 9.866259 36.158837 0.359488 6.137371 2.018320 1.075700 0.950760 1.129970 17.681790 -9.700179 3.620366 6.376825 1.642974 -4.782528 12.813104 -4.380924 5.366619 -1.012605 -2.942310 3.062895 0.192780 -0.754990 0.543600 -1.552339 -4.526050 -8.583850 4.624845 5.756290 35.562969 9.470011 7.293059 16.995978 5.346632 -3.350195 -19.882050 -7.513187 5.228932 58.491293 -14.639200 5.947050 -32.096770 -27.093064 -29.150643 11.252731 -49.932588 0.080317 -10.251302 -20.439077 -18.257989 -1.217419 -2.926199 3.177685 0.759400 -0.516200 0.979930 0.119890 18.337308 41.834242 15.203965 41.838301 39.809476 5.308530 84.354070 76.789953 49.538769 2.647335 -1.502805 0.508120 -0.198870 -0.598000 -0.144280 
-0.416420 16.791560 -2.975480 -8.985610 -22.863435 -1.811769 -15.718976 14.401918 2.947764 10.486201 2.168670 -27.079933 -1.891020 9.923178 36.424167 0.371328 6.189841 1.994503 1.081720 0.958590 1.136260 17.671294 -9.647144 3.619377 6.538330 1.598538 -4.531572 12.787423 -4.378991 5.317996 -1.023332 -2.942510 3.058955 0.193210 -0.766450 0.543640 -1.510058 -4.679186 -8.596674 4.559748 5.679655 36.022088 9.544156 7.213616 17.021940 5.405648 -3.505713 -20.004780 -8.015774 5.526118 58.710806 -14.773400 5.903770 -32.432920 -27.187041 -29.370225 11.312175 -49.833931 0.155017 -10.144600 -21.133961 -17.328193 -1.304359 -2.921627 3.176059 0.763890 -0.526220 0.989590 0.118220 18.309652 42.122900 15.333491 41.791084 39.792271 5.279198 88.929795 77.286286 52.578880 2.990843 -1.038244 0.514390 -0.200200 -0.601470 -0.143530 
-0.417540 16.789260 -2.977740 -9.130933 -23.083843 -1.906060 -15.734086 14.440903 2.946994 10.687783 2.267485 -27.102616 -1.814599 9.982508 36.660632 0.382027 6.239589 1.972340 1.086960 0.964610 1.143380 17.661510 -9.597723 3.617530 6.681255 1.562133 -4.307136 12.762542 -4.380264 5.294957 -1.033180 -2.942421 3.055197 0.193030 -0.777940 0.543580 -1.470699 -4.821086 -8.609539 4.478901 5.616077 36.486353 9.594105 7.161911 16.970889 5.466932 -3.601081 -20.099407 -8.375312 5.753144 58.945802 -14.936050 5.875290 -32.756290 -27.323754 -29.564631 11.384456 -49.686939 0.293310 -10.083934 -21.838177 -16.515399 -1.393486 -2.915899 3.174647 0.769270 -0.535800 0.998940 0.116070 18.315232 42.378699 15.397577 41.828379 39.702456 4.833535 93.003899 77.177230 55.349793 3.288974 -0.600148 0.519380 -0.201810 -0.605110 -0.143900 
-0.418410 16.787810 -2.979390 -9.273234 -23.288429 -1.974717 -15.747836 14.475435 2.947116 10.882075 2.360556 -27.128213 -1.753722 10.036965 36.857722 0.390564 6.284413 1.952567 1.090510 0.967190 1.149720 17.652793 -9.552711 3.616073 6.824471 1.533831 -4.115915 12.731639 -4.382750 5.285467 -1.041332 -2.941742 3.052428 0.191140 -0.787970 0.544240 -1.435185 -4.947393 -8.623076 4.410601 5.565301 36.922259 9.632702 7.140386 16.855923 5.536958 -3.648086 -20.166891 -8.608743 5.913881 59.171607 -15.137230 5.861170 -33.024480 -27.483231 -29.723868 11.461804 -49.542124 0.477617 -10.067046 -22.531534 -15.821737 -1.484517 -2.910877 3.174347 0.774950 -0.543770 1.006510 0.113630 18.329736 42.593806 15.416527 41.919394 39.524361 4.116750 96.565375 76.689554 57.913078 3.506508 -0.241851 0.523270 -0.204170 -0.607360 -0.145330 
